<svg xmlns="http://www.w3.org/2000/svg" viewBox="0 0 2292 1064" width="2292" height="1064"><path fill="#2D2226" fill-rule="evenodd" d="M268.50 1030.84 C299.63 1024.58 321.71 1011.05 342.12 985.71 C355.63 968.95 358.41 960.86 353.71 951.99 C349.60 944.22 348.89 943.99 327.97 943.60 C283.82 942.80 269.47 926.96 264.01 873.00 C263.14 864.43 262.87 759.87 262.96 463.00 C263.09 33.53 263.34 55.41 258.16 45.34 C252.63 34.60 245.55 31.50 226.50 31.50 C208.33 31.50 198.59 34.23 165.34 48.61 C137.94 60.48 91.52 79.94 73.50 87.12 C36.52 101.86 33.18 103.57 31.79 108.50 C30.45 113.27 31.94 127.94 33.98 129.98 C35.75 131.75 49.07 135.17 61.50 137.05 C98.66 142.67 116.63 161.00 123.21 200.00 C123.98 204.58 124.51 313.10 124.98 566.50 C125.72 957.72 125.29 929.85 130.98 952.00 C139.35 984.60 153.80 1005.29 177.45 1018.51 C202.05 1032.27 237.49 1037.06 268.50 1030.84 Z M740.50 1025.51 C801.81 1018.02 851.06 992.45 893.61 946.00 C923.99 912.83 942.77 861.43 948.20 796.64 C948.99 787.19 949.42 750.97 949.51 687.50 C949.68 560.48 951.51 538.76 965.09 503.41 C984.43 453.04 1024.27 441.57 1046.44 480.00 C1067.38 516.30 1073.51 569.46 1071.03 692.92 C1070.51 718.45 1070.27 739.63 1070.49 739.98 C1071.93 742.31 1072.88 882.71 1071.55 897.50 C1066.70 951.62 1052.90 980.42 1024.81 995.04 C1014.52 1000.39 1013.00 1002.45 1013.00 1011.01 C1013.00 1015.58 1013.45 1018.13 1014.40 1018.92 C1015.45 1019.79 1043.99 1020.08 1127.65 1020.05 C1253.84 1020.01 1242.00 1020.86 1242.00 1011.87 C1242.00 1003.19 1241.38 1002.47 1226.63 993.91 C1200.72 978.86 1190.55 955.71 1184.29 897.50 C1182.32 879.11 1182.14 703.33 1184.06 674.50 C1190.00 585.69 1224.81 516.94 1274.22 496.41 C1294.31 488.06 1305.26 485.87 1329.63 485.30 C1403.20 483.58 1439.08 519.94 1453.17 610.50 C1455.50 625.50 1455.50 625.50 1455.16 739.50 C1454.76 871.66 1455.26 883.16 1462.50 910.68 C1477.95 969.36 1516.32 1011.15 1563.86 1021.05 C1574.70 1023.31 1601.92 1023.77 1612.77 1021.88 C1630.41 1018.81 1630.98 1004.82 1613.71 999.07 C1598.35 993.96 1587.82 981.23 1579.14 957.27 C1568.68 928.41 1567.54 906.30 1569.13 762.50 C1570.40 648.00 1569.86 618.72 1565.99 591.00 C1552.41 493.63 1513.02 442.06 1436.54 421.52 C1404.85 413.01 1360.22 413.26 1329.50 422.12 C1287.74 434.18 1262.13 449.71 1228.44 483.43 C1206.80 505.08 1196.54 520.05 1181.57 551.78 C1176.75 561.99 1176.27 561.37 1172.99 540.50 C1166.46 499.01 1155.74 475.68 1132.54 452.44 C1093.06 412.87 1031.57 406.89 985.82 438.16 C948.84 463.44 930.27 500.88 923.42 563.99 C920.24 593.30 919.92 605.50 920.57 672.50 C921.80 798.82 918.42 835.48 901.49 879.04 C875.58 945.75 817.45 980.70 746.97 971.95 C695.21 965.52 630.47 924.95 593.84 876.00 C533.31 795.10 517.84 706.50 549.32 621.00 C581.75 532.94 640.35 469.56 716.29 440.43 C736.25 432.77 738.94 430.89 737.61 425.59 C735.01 415.21 673.52 413.18 632.50 422.12 C566.07 436.60 501.73 476.53 458.65 530.03 C409.21 591.41 386.17 665.45 391.90 744.50 C395.19 789.90 399.01 805.21 417.46 846.81 C435.86 888.28 465.03 926.79 498.00 953.13 C555.97 999.43 611.36 1021.48 684.50 1027.38 C694.39 1028.18 727.76 1027.06 740.50 1025.51 Z M1858.76 1025.99 C1911.81 1018.75 1948.55 1000.33 1984.25 963.07 C2006.84 939.50 2019.48 921.05 2037.71 885.00 C2052.91 854.94 2054.72 853.13 2054.19 868.50 C2050.67 969.83 2088.85 1025.10 2162.50 1025.32 C2202.54 1025.44 2236.20 1009.41 2255.03 981.26 C2261.13 972.14 2261.42 969.02 2256.71 962.83 C2252.21 956.92 2249.56 956.75 2241.68 961.87 C2224.05 973.33 2209.99 975.79 2197.72 969.57 C2180.82 961.01 2173.29 942.81 2168.96 900.00 C2167.13 882.00 2166.60 788.72 2167.96 725.00 C2170.52 605.17 2162.98 557.14 2133.85 507.73 C2122.43 488.36 2109.12 473.99 2089.96 460.33 C2048.58 430.82 2018.08 419.54 1968.50 415.41 C1880.45 408.06 1796.85 425.21 1750.38 460.13 C1722.72 480.91 1705.18 501.91 1698.26 522.50 C1694.31 534.27 1694.31 553.69 1698.25 562.27 C1711.74 591.58 1764.94 597.40 1791.83 572.50 C1799.75 565.17 1804.39 555.86 1813.03 530.00 C1824.71 495.06 1835.35 478.06 1855.71 461.84 C1902.51 424.54 1988.95 432.65 2022.74 477.51 C2052.19 516.62 2047.67 564.35 2011.21 599.18 C1989.55 619.87 1932.09 648.06 1872.00 667.49 C1828.15 681.66 1820.51 684.48 1801.50 693.48 C1795.09 696.51 1789.65 699.00 1789.43 699.00 C1789.01 699.00 1775.07 706.58 1759.50 715.28 C1710.58 742.62 1671.61 793.23 1662.96 840.65 C1652.75 896.64 1668.07 949.95 1705.00 986.98 C1725.48 1007.52 1761.16 1023.69 1794.00 1027.30 C1806.38 1028.66 1844.90 1027.88 1858.76 1025.99 Z M1862.00 959.52 C1839.99 956.25 1824.54 948.56 1810.44 933.86 C1777.93 899.99 1771.98 848.30 1794.41 794.76 C1814.19 747.57 1827.61 736.32 1923.50 686.46 C1974.60 659.90 2021.54 628.14 2041.73 606.47 C2047.87 599.88 2051.30 596.90 2051.96 597.56 C2053.61 599.21 2054.57 716.08 2053.10 737.04 C2048.66 800.38 2036.31 840.23 2007.69 883.50 C1970.65 939.52 1916.73 967.65 1862.00 959.52 Z"/></svg>