<svg xmlns="http://www.w3.org/2000/svg" width="1024" height="1024" viewBox="0 0 1024 1024">
  <rect width="1024" height="1024" fill="#FDE8EB"/>
  <path d="M512 152 A360 360 0 0 1 872 512" fill="none" stroke="#D4727F" stroke-width="76" stroke-linecap="round"/>
  <path d="M872 512 A360 360 0 0 1 512 872" fill="none" stroke="#7BAE7F" stroke-width="76" stroke-linecap="round"/>
  <path d="M512 872 A360 360 0 0 1 152 512" fill="none" stroke="#E8A87C" stroke-width="76" stroke-linecap="round"/>
  <path d="M152 512 A360 360 0 0 1 512 152" fill="none" stroke="#B09ACB" stroke-width="76" stroke-linecap="round"/>
  <g transform="translate(345.86,342.00) scale(0.4830)" fill="#C4727F"><path d="M 295.710 2 C 295.236 3.814, 294.346 4, 286.129 4 C 278.094 4, 276.949 4.226, 276 6 C 275.088 7.705, 273.906 8, 268 8 C 262.094 8, 260.912 8.295, 260 10 C 259.088 11.705, 257.906 12, 252 12 C 246.094 12, 244.912 12.295, 244 14 C 243.152 15.585, 241.906 16, 238 16 C 234.094 16, 232.848 16.415, 232 18 C 231.152 19.585, 229.906 20, 226 20 C 222.094 20, 220.848 20.415, 220 22 C 219.304 23.301, 217.906 24, 216 24 C 214.094 24, 212.696 24.699, 212 26 C 211.152 27.585, 209.906 28, 206 28 C 202.094 28, 200.848 28.415, 200 30 C 199.304 31.301, 197.906 32, 196 32 C 194.094 32, 192.696 32.699, 192 34 C 191.374 35.170, 189.906 36, 188.462 36 C 186.853 36, 184.739 37.390, 182.381 40 C 179.775 42.885, 177.973 44, 175.919 44 C 174.094 44, 172.686 44.719, 172 46 C 171.387 47.145, 169.906 48, 168.536 48 C 166.912 48, 164.300 49.931, 160.419 54 C 156.698 57.901, 153.899 60, 152.419 60 C 150.938 60, 148.139 62.099, 144.419 66 C 140.945 69.642, 137.863 72, 136.579 72 C 133.624 72, 76 129.624, 76 132.579 C 76 133.863, 73.642 136.945, 70 140.419 C 65.931 144.300, 64 146.912, 64 148.536 C 64 149.906, 63.145 151.387, 62 152 C 60.719 152.686, 60 154.094, 60 155.919 C 60 157.973, 58.885 159.775, 56 162.381 C 53.390 164.739, 52 166.853, 52 168.462 C 52 169.906, 51.170 171.374, 50 172 C 48.719 172.686, 48 174.094, 48 175.919 C 48 177.973, 46.885 179.775, 44 182.381 C 41.390 184.739, 40 186.853, 40 188.462 C 40 189.906, 39.170 191.374, 38 192 C 36.699 192.696, 36 194.094, 36 196 C 36 197.906, 35.301 199.304, 34 200 C 32.415 200.848, 32 202.094, 32 206 C 32 209.906, 31.585 211.152, 30 212 C 28.699 212.696, 28 214.094, 28 216 C 28 217.906, 27.301 219.304, 26 220 C 24.699 220.696, 24 222.094, 24 224 C 24 225.906, 23.301 227.304, 22 228 C 20.415 228.848, 20 230.094, 20 234 C 20 237.906, 19.585 239.152, 18 240 C 16.415 240.848, 16 242.094, 16 246 C 16 249.906, 15.585 251.152, 14 252 C 12.229 252.948, 12 254.094, 12 262 C 12 269.906, 11.771 271.052, 10 272 C 8.229 272.948, 8 274.094, 8 282 C 8 289.906, 7.771 291.052, 6 292 C 4.120 293.006, 4 294.094, 4 310.129 C 4 326.346, 3.901 327.213, 2 327.710 C 0.069 328.215, -0 329.074, -0 352.500 C -0 375.926, 0.069 376.785, 2 377.290 C 3.888 377.784, 4 378.654, 4 392.871 C 4 406.906, 4.136 408.002, 6 409 C 7.771 409.948, 8 411.094, 8 419 C 8 426.906, 8.229 428.052, 10 429 C 11.705 429.912, 12 431.094, 12 437 C 12 442.906, 12.295 444.088, 14 445 C 15.585 445.848, 16 447.094, 16 451 C 16 454.906, 16.415 456.152, 18 457 C 19.585 457.848, 20 459.094, 20 463 C 20 466.906, 20.415 468.152, 22 469 C 23.585 469.848, 24 471.094, 24 475 C 24 478.906, 24.415 480.152, 26 481 C 27.301 481.696, 28 483.094, 28 485 C 28 486.906, 28.699 488.304, 30 489 C 31.585 489.848, 32 491.094, 32 495 C 32 498.906, 32.415 500.152, 34 501 C 35.301 501.696, 36 503.094, 36 505 C 36 506.906, 36.699 508.304, 38 509 C 39.170 509.626, 40 511.094, 40 512.538 C 40 514.147, 41.390 516.261, 44 518.619 C 46.885 521.225, 48 523.027, 48 525.081 C 48 526.906, 48.719 528.314, 50 529 C 51.170 529.626, 52 531.094, 52 532.538 C 52 534.147, 53.390 536.261, 56 538.619 C 58.885 541.225, 60 543.027, 60 545.081 C 60 546.906, 60.719 548.314, 62 549 C 63.170 549.626, 64 551.094, 64 552.538 C 64 554.147, 65.390 556.261, 68 558.619 C 70.432 560.817, 72 563.123, 72 564.505 C 72 566.029, 74.632 569.338, 80 574.562 C 85.034 579.460, 88 583.132, 88 584.466 C 88 587.367, 113.620 613, 116.520 613 C 117.865 613, 122.174 616.611, 128.450 623 C 135.020 629.687, 139.008 633, 140.485 633 C 141.884 633, 144.797 635.203, 148.419 639 C 152.190 642.954, 154.930 645, 156.454 645 C 157.884 645, 160.148 646.528, 162.381 649 C 164.739 651.610, 166.853 653, 168.462 653 C 169.906 653, 171.374 653.830, 172 655 C 172.686 656.281, 174.094 657, 175.919 657 C 177.973 657, 179.775 658.115, 182.381 661 C 184.739 663.610, 186.853 665, 188.462 665 C 189.906 665, 191.374 665.830, 192 667 C 192.696 668.301, 194.094 669, 196 669 C 197.906 669, 199.304 669.699, 200 671 C 200.696 672.301, 202.094 673, 204 673 C 205.906 673, 207.304 673.699, 208 675 C 208.696 676.301, 210.094 677, 212 677 C 213.906 677, 215.304 677.699, 216 679 C 216.696 680.301, 218.094 681, 220 681 C 221.906 681, 223.304 681.699, 224 683 C 224.848 684.585, 226.094 685, 230 685 C 233.906 685, 235.152 685.415, 236 687 C 236.912 688.705, 238.094 689, 244 689 C 249.906 689, 251.088 689.295, 252 691 C 252.848 692.585, 254.094 693, 258 693 C 261.906 693, 263.152 693.415, 264 695 C 264.912 696.705, 266.094 697, 272 697 C 277.906 697, 279.088 697.295, 280 699 C 280.971 700.814, 282.094 701, 292.067 701 C 300.918 701, 303.175 701.293, 303.638 702.500 C 304.508 704.767, 392.492 704.767, 393.362 702.500 C 393.832 701.273, 396.304 701, 406.933 701 C 418.906 701, 420.014 700.842, 421 699 C 421.912 697.295, 423.094 697, 429 697 C 434.906 697, 436.088 696.705, 437 695 C 437.848 693.415, 439.094 693, 443 693 C 446.906 693, 448.152 692.585, 449 691 C 449.848 689.415, 451.094 689, 455 689 C 458.906 689, 460.152 688.585, 461 687 C 461.848 685.415, 463.094 685, 467 685 C 470.906 685, 472.152 684.585, 473 683 C 473.696 681.699, 475.094 681, 477 681 C 478.906 681, 480.304 680.301, 481 679 C 481.825 677.458, 483.094 677, 486.538 677 C 490.481 677, 491.429 676.530, 494.619 673 C 497.225 670.115, 499.027 669, 501.081 669 C 502.906 669, 504.314 668.281, 505 667 C 505.626 665.830, 507.094 665, 508.538 665 C 510.147 665, 512.261 663.610, 514.619 661 C 516.817 658.568, 519.123 657, 520.505 657 C 522.029 657, 525.338 654.368, 530.562 649 C 535.438 643.989, 539.135 641, 540.456 641 C 543.419 641, 577 607.367, 577 604.399 C 577 603.141, 578.676 600.718, 581 598.619 C 583.540 596.325, 585 594.134, 585 592.619 C 585 591.104, 586.460 588.913, 589 586.619 C 591.610 584.261, 593 582.147, 593 580.538 C 593 579.094, 593.830 577.626, 595 577 C 596.301 576.304, 597 574.906, 597 573 C 597 571.094, 597.699 569.696, 599 569 C 600.301 568.304, 601 566.906, 601 565 C 601 563.094, 601.699 561.696, 603 561 C 604.301 560.304, 605 558.906, 605 557 C 605 555.094, 605.699 553.696, 607 553 C 608.301 552.304, 609 550.906, 609 549 C 609 547.094, 609.699 545.696, 611 545 C 612.301 544.304, 613 542.906, 613 541 C 613 539.094, 613.699 537.696, 615 537 C 616.585 536.152, 617 534.906, 617 531 C 617 527.094, 617.415 525.848, 619 525 C 620.705 524.088, 621 522.906, 621 517 C 621 511.094, 621.295 509.912, 623 509 C 624.705 508.088, 625 506.906, 625 501 C 625 495.094, 625.295 493.912, 627 493 C 628.813 492.030, 629 490.906, 629 481 C 629 471.094, 629.187 469.970, 631 469 C 632.978 467.941, 633 466.906, 633 375 C 633 283.094, 633.022 282.059, 635 281 C 636.924 279.970, 637 278.906, 637 253 C 637 227.094, 637.076 226.030, 639 225 C 640.879 223.994, 641 222.906, 641 207 C 641 191.094, 641.121 190.006, 643 189 C 644.813 188.030, 645 186.906, 645 177 C 645 167.094, 645.187 165.970, 647 165 C 648.771 164.052, 649 162.906, 649 155 C 649 147.094, 649.229 145.948, 651 145 C 652.771 144.052, 653 142.906, 653 135 C 653 127.094, 653.229 125.948, 655 125 C 656.705 124.088, 657 122.906, 657 117 C 657 111.094, 657.295 109.912, 659 109 C 660.585 108.152, 661 106.906, 661 103 C 661 99.094, 661.415 97.848, 663 97 C 664.585 96.152, 665 94.906, 665 91 C 665 87.094, 665.415 85.848, 667 85 C 668.585 84.152, 669 82.906, 669 79 C 669 75.094, 669.415 73.848, 671 73 C 672.301 72.304, 673 70.906, 673 69 C 673 67.094, 673.699 65.696, 675 65 C 676.281 64.314, 677 62.906, 677 61.081 C 677 59.027, 678.115 57.225, 681 54.619 C 683.664 52.213, 685 50.159, 685 48.471 C 685 47.078, 685.675 45.678, 686.500 45.362 C 687.765 44.876, 688 41.597, 688 24.388 L 688 3.990 596.250 4.245 L 504.500 4.500 504.500 14.500 L 504.500 24.500 507.749 24.813 C 509.708 25.002, 511.409 25.895, 512.034 27.063 C 512.697 28.302, 514.126 29, 516 29 C 517.906 29, 519.304 29.699, 520 31 C 520.670 32.252, 522.094 33, 523.806 33 C 525.915 33, 528.540 35.008, 535.271 41.770 C 541.018 47.544, 544 51.302, 544 52.772 C 544 54.108, 545.607 56.457, 548 58.619 C 550.885 61.225, 552 63.027, 552 65.081 C 552 66.906, 552.719 68.314, 554 69 C 555.301 69.696, 556 71.094, 556 73 C 556 74.906, 556.699 76.304, 558 77 C 559.301 77.696, 560 79.094, 560 81 C 560 82.906, 560.699 84.304, 562 85 C 563.585 85.848, 564 87.094, 564 91 C 564 94.906, 564.415 96.152, 566 97 C 567.301 97.696, 568 99.094, 568 101 C 568 102.906, 568.699 104.304, 570 105 C 571.705 105.912, 572 107.094, 572 113 C 572 118.906, 572.295 120.088, 574 121 C 575.705 121.912, 576 123.094, 576 129 C 576 134.906, 576.295 136.088, 578 137 C 579.771 137.948, 580 139.094, 580 147 C 580 154.906, 580.229 156.052, 582 157 C 583.771 157.948, 584 159.094, 584 167 C 584 174.906, 584.229 176.052, 586 177 C 587.813 177.970, 588 179.094, 588 189 C 588 198.906, 588.187 200.030, 590 201 C 591.863 201.997, 592 203.094, 592 217 C 592 230.906, 592.137 232.003, 594 233 C 595.938 234.037, 596 235.094, 596 267 C 596 298.906, 596.062 299.963, 598 301 C 599.961 302.049, 600 303.094, 600 354.500 C 600 405.906, 599.961 406.951, 598 408 C 596.071 409.033, 596 410.094, 596 438 C 596 465.906, 595.929 466.967, 594 468 C 592.187 468.970, 592 470.094, 592 480 C 592 489.906, 591.813 491.030, 590 492 C 588.295 492.912, 588 494.094, 588 500 C 588 505.906, 587.705 507.088, 586 508 C 584.295 508.912, 584 510.094, 584 516 C 584 521.906, 583.705 523.088, 582 524 C 580.415 524.848, 580 526.094, 580 530 C 580 533.906, 579.585 535.152, 578 536 C 576.699 536.696, 576 538.094, 576 540 C 576 541.906, 575.301 543.304, 574 544 C 572.699 544.696, 572 546.094, 572 548 C 572 549.906, 571.301 551.304, 570 552 C 568.699 552.696, 568 554.094, 568 556 C 568 557.906, 567.301 559.304, 566 560 C 564.699 560.696, 564 562.094, 564 564 C 564 565.906, 563.301 567.304, 562 568 C 560.733 568.678, 560 570.094, 560 571.862 C 560 574.036, 558.230 576.376, 552 582.438 C 546.967 587.336, 544 591.009, 544 592.342 C 544 595.284, 527.284 612, 524.342 612 C 522.955 612, 520.025 614.219, 516.419 618 C 512.074 622.555, 510.018 624, 507.883 624 C 506.094 624, 504.681 624.728, 504 626 C 503.304 627.301, 501.906 628, 500 628 C 498.094 628, 496.696 628.699, 496 630 C 495.152 631.585, 493.906 632, 490 632 C 486.094 632, 484.848 632.415, 484 634 C 483.304 635.301, 481.906 636, 480 636 C 478.094 636, 476.696 636.699, 476 638 C 475.030 639.813, 473.906 640, 464 640 C 454.094 640, 452.970 640.187, 452 642 C 450.989 643.889, 449.906 644, 432.500 644 C 415.094 644, 414.011 643.889, 413 642 C 412.030 640.187, 410.906 640, 401 640 C 391.094 640, 389.970 639.813, 389 638 C 388.088 636.295, 386.906 636, 381 636 C 375.094 636, 373.912 635.705, 373 634 C 372.152 632.415, 370.906 632, 367 632 C 363.094 632, 361.848 631.585, 361 630 C 360.304 628.699, 358.906 628, 357 628 C 355.094 628, 353.696 627.301, 353 626 C 352.304 624.699, 350.906 624, 349 624 C 347.094 624, 345.696 623.301, 345 622 C 344.304 620.699, 342.906 620, 341 620 C 339.094 620, 337.696 619.301, 337 618 C 336.304 616.699, 334.906 616, 333 616 C 331.094 616, 329.696 615.301, 329 614 C 328.304 612.699, 326.906 612, 325 612 C 323.094 612, 321.696 611.301, 321 610 C 320.314 608.719, 318.906 608, 317.081 608 C 315.027 608, 313.225 606.885, 310.619 604 C 308.325 601.460, 306.134 600, 304.619 600 C 303.104 600, 300.913 598.540, 298.619 596 C 296.433 593.580, 294.113 592, 292.746 592 C 289.549 592, 233 535.439, 233 532.241 C 233 530.889, 231.407 528.556, 229 526.381 C 226.460 524.087, 225 521.896, 225 520.381 C 225 518.866, 223.540 516.675, 221 514.381 C 218.115 511.775, 217 509.973, 217 507.919 C 217 506.094, 216.281 504.686, 215 504 C 213.830 503.374, 213 501.906, 213 500.462 C 213 498.853, 211.610 496.739, 209 494.381 C 206.115 491.775, 205 489.973, 205 487.919 C 205 486.094, 204.281 484.686, 203 484 C 201.699 483.304, 201 481.906, 201 480 C 201 478.094, 200.301 476.696, 199 476 C 197.699 475.304, 197 473.906, 197 472 C 197 470.094, 196.301 468.696, 195 468 C 193.415 467.152, 193 465.906, 193 462 C 193 458.094, 192.585 456.848, 191 456 C 189.699 455.304, 189 453.906, 189 452 C 189 450.094, 188.301 448.696, 187 448 C 185.415 447.152, 185 445.906, 185 442 C 185 438.094, 184.585 436.848, 183 436 C 181.415 435.152, 181 433.906, 181 430 C 181 426.094, 180.585 424.848, 179 424 C 177.295 423.088, 177 421.906, 177 416 C 177 410.094, 176.705 408.912, 175 408 C 173.229 407.052, 173 405.906, 173 398 C 173 390.094, 172.771 388.948, 171 388 C 169.108 386.988, 169 385.906, 169 368 C 169 350.094, 168.892 349.012, 167 348 C 165.142 347.006, 165 345.906, 165 332.500 C 165 319.094, 165.142 317.994, 167 317 C 168.879 315.994, 169 314.906, 169 299 C 169 283.094, 169.121 282.006, 171 281 C 172.813 280.030, 173 278.906, 173 269 C 173 259.094, 173.187 257.970, 175 257 C 176.585 256.152, 177 254.906, 177 251 C 177 247.094, 177.415 245.848, 179 245 C 180.585 244.152, 181 242.906, 181 239 C 181 235.094, 181.415 233.848, 183 233 C 184.585 232.152, 185 230.906, 185 227 C 185 223.094, 185.415 221.848, 187 221 C 188.585 220.152, 189 218.906, 189 215 C 189 211.094, 189.415 209.848, 191 209 C 192.301 208.304, 193 206.906, 193 205 C 193 203.094, 193.699 201.696, 195 201 C 196.585 200.152, 197 198.906, 197 195 C 197 191.094, 197.415 189.848, 199 189 C 200.281 188.314, 201 186.906, 201 185.081 C 201 183.027, 202.115 181.225, 205 178.619 C 207.610 176.261, 209 174.147, 209 172.538 C 209 171.094, 209.830 169.626, 211 169 C 212.301 168.304, 213 166.906, 213 165 C 213 163.094, 213.699 161.696, 215 161 C 216.281 160.314, 217 158.906, 217 157.081 C 217 155.027, 218.115 153.225, 221 150.619 C 223.507 148.354, 225 146.128, 225 144.655 C 225 143.085, 226.992 140.405, 231 136.581 C 234.758 132.997, 237 130.042, 237 128.672 C 237 125.610, 289.623 73, 292.686 73 C 294.039 73, 297.018 70.736, 300.581 67 C 304.405 62.992, 307.085 61, 308.655 61 C 310.128 61, 312.354 59.507, 314.619 57 C 316.913 54.460, 319.104 53, 320.619 53 C 322.134 53, 324.325 51.540, 326.619 49 C 329.225 46.115, 331.027 45, 333.081 45 C 334.906 45, 336.314 44.281, 337 43 C 337.696 41.699, 339.094 41, 341 41 C 342.906 41, 344.304 40.301, 345 39 C 345.696 37.699, 347.094 37, 349 37 C 350.906 37, 352.304 36.301, 353 35 C 353.696 33.699, 355.094 33, 357 33 C 358.906 33, 360.304 32.301, 361 31 C 361.848 29.415, 363.094 29, 367 29 C 370.906 29, 372.152 28.585, 373 27 C 373.848 25.415, 375.094 25, 379 25 C 382.853 25, 384.156 24.577, 384.966 23.063 C 385.591 21.895, 387.292 21.002, 389.251 20.813 C 392.107 20.538, 392.538 20.107, 392.813 17.251 C 393.002 15.292, 393.895 13.591, 395.063 12.966 C 397.781 11.512, 397.739 5.466, 395 4 C 393.900 3.411, 393 2.270, 393 1.465 C 393 0.199, 386.441 0, 344.617 0 C 297.074 0, 296.224 0.035, 295.710 2"/></g>
</svg>