<svg xmlns="http://www.w3.org/2000/svg" viewBox="0 0 584 560" width="584" height="560"><path fill="#C4727F" fill-rule="evenodd" d="M305.40 526.49 C376.78 518.14 441.26 471.34 461.37 413.29 C474.45 375.53 477.06 349.37 477.04 256.50 C477.00 112.59 485.57 83.64 532.86 67.88 C554.75 60.58 557.53 50.70 539.19 45.37 C513.24 37.82 482.87 59.76 469.77 95.50 C457.41 129.25 454.99 153.92 454.50 251.00 C453.95 359.38 450.59 387.01 433.90 420.19 C389.57 508.37 280.21 507.81 203.81 419.00 C97.34 295.25 146.95 101.24 298.39 49.08 C308.17 45.71 310.00 44.60 310.00 42.03 C310.00 33.58 274.84 28.21 247.44 32.47 C106.08 54.48 10.12 184.94 34.31 322.24 C57.76 455.34 172.79 542.00 305.40 526.49 Z"/></svg>